<svg width="555" height="72" viewBox="0 0 555 72" fill="none" xmlns="http://www.w3.org/2000/svg">
<path d="M37.2984 50.4618C29.5403 42.4054 9.20027 41.1372 0 41.5102V28.0828C84.6673 19.2555 256.464 1.30256 266.31 0.109011C276.157 -1.08454 409.163 7.81734 474.435 12.4175L443.105 70.9759C330.588 71.2246 100.258 71.5727 79.0726 70.9759C52.5907 70.23 46.996 60.5324 37.2984 50.4618Z" fill="#F3F3F3"/>
<path d="M517.702 50.4618C525.46 42.4054 545.8 41.1372 555 41.5102V28.0828C470.333 19.2555 298.536 1.30256 288.69 0.109011C278.843 -1.08454 145.837 7.81734 80.5645 12.4175L111.895 70.9759C224.412 71.2246 454.742 71.5727 475.927 70.9759C502.409 70.23 508.004 60.5324 517.702 50.4618Z" fill="#F3F3F3"/>
</svg>
